<svg width="325" height="210" viewBox="0 0 325 210" fill="none" xmlns="http://www.w3.org/2000/svg">
<path d="M22.8887 22.748C25.3672 20.2871 26.6152 17.2285 26.6152 13.5723C26.6152 9.93359 25.3672 6.875 22.8887 4.41406C20.4102 1.95312 17.3164 0.722656 13.625 0.722656C9.91602 0.722656 6.82227 1.95312 4.34375 4.41406C1.86523 6.875 0.617188 9.93359 0.617188 13.5723C0.617188 17.2285 1.86523 20.2871 4.34375 22.748C6.82227 25.209 9.91602 26.4395 13.625 26.4395C17.3164 26.4395 20.4102 25.209 22.8887 22.748ZM6.76953 20.4805C4.92383 18.6348 4.00977 16.332 4.00977 13.5723C4.00977 10.8125 4.92383 8.50977 6.76953 6.66406C8.59766 4.81836 10.8828 3.9043 13.625 3.9043C16.3496 3.9043 18.6348 4.81836 20.4805 6.66406C22.3086 8.50977 23.2227 10.8125 23.2227 13.5723C23.2227 16.332 22.3086 18.6348 20.4805 20.4805C18.6348 22.3262 16.3496 23.2578 13.625 23.2578C10.8828 23.2578 8.59766 22.3262 6.76953 20.4805ZM33.9453 0.0722656H30.8516V26H37.3203V23.1523H33.9453V0.0722656ZM49.4668 0.582031L45.7227 5.22266H49.0449L53.4219 0.582031H49.4668ZM54.582 7.64844H40.6074V10.6367H51.4883V14.2227H46.0215C44.123 14.2227 42.541 14.8027 41.293 15.9629C40.0273 17.1406 39.3945 18.582 39.3945 20.3047C39.3945 22.0625 40.0273 23.5215 41.293 24.6816C42.541 25.8594 44.123 26.4395 46.0215 26.4395C48.5 26.4395 50.6621 25.3672 51.8047 23.627V26H56.9902V23.1875H54.582V7.64844ZM46.4082 23.627C45.3008 23.627 44.4043 23.3105 43.6836 22.6777C42.9629 22.0625 42.5938 21.2715 42.5938 20.3047C42.5938 19.373 42.9629 18.5996 43.6836 17.9668C44.4043 17.3516 45.3008 17.0352 46.4082 17.0352H51.4883V19.9883C51.4883 21.0605 51.0137 21.9395 50.082 22.6074C49.1504 23.293 47.9199 23.627 46.4082 23.627ZM61.6309 31.2207L65.1113 22.2559H61.4375L58.9238 31.2207H61.6309ZM96.6992 16.8242C96.6992 14.0996 95.7676 11.8145 93.9043 9.96875C92.041 8.12305 89.7207 7.20898 86.9434 7.20898C84.1484 7.20898 81.8281 8.12305 79.9824 9.95117C78.1191 11.7969 77.1875 14.082 77.1875 16.8066C77.1875 19.5488 78.1191 21.834 79.9824 23.6797C81.8281 25.5254 84.1484 26.4395 86.9434 26.4395C89.1758 26.4395 91.127 25.8594 92.8145 24.6992C94.4844 23.5566 95.6621 22.0273 96.3301 20.1289H92.9199C92.4453 21.166 91.6719 21.9922 90.5996 22.625C89.5273 23.2754 88.3145 23.5918 86.9434 23.5918C85.291 23.5918 83.8672 23.082 82.6895 22.0625C81.4941 21.0605 80.7559 19.7422 80.4922 18.1074H96.6289C96.6816 17.6328 96.6992 17.2109 96.6992 16.8242ZM91.1797 11.5332C92.3574 12.5176 93.0957 13.7832 93.3945 15.3477H80.5273C80.8438 13.7656 81.582 12.4824 82.7598 11.5156C83.9199 10.5488 85.3086 10.0566 86.9434 10.0566C88.5781 10.0566 89.9844 10.5488 91.1797 11.5332ZM113.908 18.2305C113.908 19.7949 113.416 21.043 112.432 22.0098C111.447 22.9766 110.146 23.4512 108.547 23.4512C107.018 23.4512 105.787 22.9766 104.873 22.0449C103.959 21.1133 103.502 19.8652 103.502 18.3008V7.64844H100.408V19.1973C100.408 21.377 101.076 23.1348 102.395 24.4531C103.713 25.7715 105.453 26.4395 107.58 26.4395C110.375 26.4219 112.484 25.3145 113.908 23.1172V26H117.002V7.64844H113.908V18.2305ZM140.539 24.8926C141.717 23.873 142.297 22.5371 142.297 20.8848C142.297 18.1602 140.521 16.3145 136.971 15.3828C134.562 14.8027 133.367 13.7832 133.367 12.3242C133.367 11.709 133.631 11.1641 134.176 10.707C134.703 10.25 135.336 10.0215 136.074 10.0215C136.865 10.0215 137.533 10.2852 138.061 10.7949C138.588 11.3047 138.852 11.9199 138.852 12.6406H142.051C142.051 11.1289 141.488 9.8457 140.346 8.79102C139.203 7.73633 137.779 7.20898 136.109 7.20898C134.439 7.20898 133.033 7.70117 131.891 8.66797C130.748 9.63477 130.168 10.918 130.168 12.5C130.168 14.0645 130.643 15.2598 131.592 16.1035C132.541 16.9648 133.824 17.5977 135.459 18.0371C137.867 18.6523 139.062 19.6895 139.062 21.1836C139.062 21.8691 138.781 22.4492 138.219 22.9238C137.656 23.3984 136.971 23.627 136.145 23.627C135.301 23.627 134.58 23.3457 134 22.8008C133.42 22.2559 133.121 21.5703 133.121 20.7793H129.922C129.922 22.3613 130.52 23.6973 131.697 24.7871C132.875 25.8945 134.352 26.4395 136.127 26.4395C137.902 26.4395 139.361 25.9297 140.539 24.8926ZM161.914 23.6797C163.76 21.834 164.691 19.5488 164.691 16.8066C164.691 14.082 163.76 11.7969 161.914 9.95117C160.051 8.12305 157.73 7.20898 154.936 7.20898C152.141 7.20898 149.82 8.12305 147.957 9.95117C146.076 11.7969 145.145 14.082 145.145 16.8066C145.145 19.5488 146.076 21.834 147.957 23.6797C149.82 25.5254 152.141 26.4395 154.936 26.4395C157.73 26.4395 160.051 25.5254 161.914 23.6797ZM154.936 23.4512C153.037 23.4512 151.473 22.8184 150.225 21.5527C148.977 20.3047 148.344 18.7227 148.344 16.8242C148.344 14.9258 148.977 13.3438 150.225 12.0781C151.473 10.8301 153.037 10.1973 154.936 10.1973C156.816 10.1973 158.381 10.8301 159.629 12.0781C160.877 13.3438 161.492 14.9258 161.492 16.8242C161.492 18.7227 160.877 20.3047 159.629 21.5527C158.381 22.8184 156.816 23.4512 154.936 23.4512ZM182.006 18.2305C182.006 19.7949 181.514 21.043 180.529 22.0098C179.545 22.9766 178.244 23.4512 176.645 23.4512C175.115 23.4512 173.885 22.9766 172.971 22.0449C172.057 21.1133 171.6 19.8652 171.6 18.3008V7.64844H168.506V19.1973C168.506 21.377 169.174 23.1348 170.492 24.4531C171.811 25.7715 173.551 26.4395 175.678 26.4395C178.473 26.4219 180.582 25.3145 182.006 23.1172V26H185.1V7.64844H182.006V18.2305ZM214.824 23.6797C216.67 21.834 217.602 19.5488 217.602 16.8066C217.602 14.082 216.67 11.7969 214.824 9.95117C212.961 8.12305 210.641 7.20898 207.846 7.20898C205.051 7.20898 202.73 8.12305 200.867 9.95117C198.986 11.7969 198.055 14.082 198.055 16.8066C198.055 19.5488 198.986 21.834 200.867 23.6797C202.73 25.5254 205.051 26.4395 207.846 26.4395C210.641 26.4395 212.961 25.5254 214.824 23.6797ZM207.846 23.4512C205.947 23.4512 204.383 22.8184 203.135 21.5527C201.887 20.3047 201.254 18.7227 201.254 16.8242C201.254 14.9258 201.887 13.3438 203.135 12.0781C204.383 10.8301 205.947 10.1973 207.846 10.1973C209.727 10.1973 211.291 10.8301 212.539 12.0781C213.787 13.3438 214.402 14.9258 214.402 16.8242C214.402 18.7227 213.787 20.3047 212.539 21.5527C211.291 22.8184 209.727 23.4512 207.846 23.4512ZM35.3281 92.2422L21.7344 58.8047H3.96094V114H17.7109V82.7109L30.5234 114H39.7812L52.5938 82.7109V114H66.3438V58.8047H48.8438L35.3281 92.2422ZM109.352 73.2188H75.8359V84.9766H96.3828V88.6484H86.9297C82.9062 88.6484 79.5469 89.8984 76.8516 92.3984C74.1562 94.9375 72.7891 98.0625 72.7891 101.773C72.7891 105.562 74.1172 108.688 76.8125 111.188C79.5078 113.727 82.8672 114.977 86.9297 114.977C91.5781 114.977 95.2891 113.492 97.9844 110.484V114H113.57V102.164H109.352V73.2188ZM90.7969 105.445C88.1406 105.445 86.1484 103.648 86.1484 101.422C86.1484 99.1953 88.1406 97.5156 90.7969 97.5156H96.3828V101.266C96.3828 103.609 93.9609 105.445 90.7969 105.445ZM144.625 73.2188H135.445V61.1875H122.477V73.2188H115.602V85.0547H122.477V114H144.625V102.164H135.445V85.0547H144.625V73.2188ZM175.992 72.2422C171.266 72.2422 167.32 74 164.234 77.5156V56.3828H151.305V114H164.234V92.0078C164.234 87.6328 167.203 84.7812 171.695 84.7812C175.758 84.7812 178.414 87.5938 178.414 91.8516V114H191.383V87.5156C191.383 82.9453 189.977 79.2344 187.125 76.4219C184.273 73.6484 180.562 72.2422 175.992 72.2422ZM241.031 93.8438C241.031 87.5938 238.922 82.4375 234.742 78.3359C230.562 74.2734 225.289 72.2422 218.922 72.2422C212.633 72.2422 207.398 74.2734 203.219 78.3359C199.039 82.4375 196.93 87.5156 196.93 93.5703C196.93 99.6641 199.039 104.742 203.219 108.844C207.398 112.945 212.633 114.977 218.922 114.977C224.039 114.977 228.531 113.648 232.398 110.992C236.227 108.375 238.844 104.898 240.289 100.562H226.617C225.562 102.398 222.555 103.844 219.273 103.844C215.211 103.844 212.008 101.461 210.797 97.5156H240.797C240.953 96.5 241.031 95.2891 241.031 93.8438ZM218.922 83.2969C222.789 83.2969 225.953 85.6406 227.164 89.5078H210.875C212.125 85.7188 215.172 83.2969 218.922 83.2969ZM272.594 95.6797C272.594 99.7422 269.859 102.398 265.797 102.398C262.047 102.398 259.547 99.7812 259.547 95.8359V73.2188H246.578V99.7422C246.578 104.352 247.945 108.023 250.68 110.797C253.375 113.57 256.969 114.977 261.383 114.977C265.875 114.977 269.586 113.336 272.594 110.094V114H285.562V73.2188H272.594V95.6797ZM308.414 114.977C313.062 114.977 316.93 113.766 320.094 111.305C323.258 108.883 324.82 105.523 324.82 101.266C324.82 97.2422 323.297 94 320.523 92.125C317.711 90.25 315.406 89.3125 311.852 88.4922C307.477 87.4375 305.289 86.1484 305.289 84.5469C305.289 83.1797 306.578 82.2422 308.18 82.2422C310.016 82.2422 311.383 83.4922 311.383 85.2109H324.273C324.273 81.6562 322.75 78.5703 319.664 76.0312C316.578 73.4922 312.789 72.2422 308.258 72.2422C303.844 72.2422 300.094 73.4141 297.008 75.7188C293.922 78.0234 292.398 81.2656 292.398 85.3672C292.398 92.2812 296.812 96.6562 305.602 98.4922C309.82 99.3906 311.93 100.68 311.93 102.398C311.93 103.922 310.523 104.977 308.492 104.977C306.344 104.977 304.742 103.375 304.742 101.344H291.852C291.852 105.133 293.453 108.375 296.617 110.992C299.781 113.648 303.727 114.977 308.414 114.977ZM45.0156 148.648V138.805H1.89062V151.773H26.0312L1.57812 184.156V194H45.5625V181.031H20.5234L45.0156 148.648ZM87.0469 188.844C91.2656 184.742 93.375 179.664 93.375 173.57C93.375 167.516 91.2656 162.438 87.0469 158.336C82.8281 154.273 77.5938 152.242 71.3047 152.242C65.0156 152.242 59.7422 154.273 55.5234 158.336C51.3047 162.438 49.1953 167.516 49.1953 173.57C49.1953 179.664 51.3047 184.742 55.5234 188.844C59.7422 192.945 65.0156 194.977 71.3047 194.977C77.5938 194.977 82.8281 192.945 87.0469 188.844ZM65.0156 179.859C63.3359 178.18 62.4766 176.109 62.4766 173.609C62.4766 171.109 63.3359 169 65.0156 167.32C66.6953 165.641 68.7656 164.781 71.3047 164.781C73.8047 164.781 75.875 165.641 77.5547 167.32C79.1953 169 80.0156 171.109 80.0156 173.609C80.0156 176.109 79.1953 178.18 77.5547 179.859C75.875 181.539 73.8047 182.398 71.3047 182.398C68.7656 182.398 66.6953 181.539 65.0156 179.859ZM123.883 152.242C119.352 152.242 115.562 153.805 112.516 156.969V153.219H99.5859V209.195H112.516V190.25C115.562 193.414 119.352 194.977 123.883 194.977C129.43 194.977 134.078 192.945 137.828 188.844C141.539 184.742 143.414 179.664 143.414 173.57C143.414 167.516 141.539 162.438 137.828 158.336C134.078 154.273 129.43 152.242 123.883 152.242ZM115.055 179.859C113.375 178.18 112.516 176.109 112.516 173.609C112.516 171.109 113.375 169 115.055 167.32C116.734 165.641 118.805 164.781 121.344 164.781C123.844 164.781 125.914 165.641 127.594 167.32C129.234 169 130.055 171.109 130.055 173.609C130.055 176.109 129.234 178.18 127.594 179.859C125.914 181.539 123.844 182.398 121.344 182.398C118.805 182.398 116.734 181.539 115.055 179.859ZM174.195 152.242C169.664 152.242 165.875 153.805 162.828 156.969V153.219H149.898V209.195H162.828V190.25C165.875 193.414 169.664 194.977 174.195 194.977C179.742 194.977 184.391 192.945 188.141 188.844C191.852 184.742 193.727 179.664 193.727 173.57C193.727 167.516 191.852 162.438 188.141 158.336C184.391 154.273 179.742 152.242 174.195 152.242ZM165.367 179.859C163.688 178.18 162.828 176.109 162.828 173.609C162.828 171.109 163.688 169 165.367 167.32C167.047 165.641 169.117 164.781 171.656 164.781C174.156 164.781 176.227 165.641 177.906 167.32C179.547 169 180.367 171.109 180.367 173.609C180.367 176.109 179.547 178.18 177.906 179.859C176.227 181.539 174.156 182.398 171.656 182.398C169.117 182.398 167.047 181.539 165.367 179.859ZM220.523 137.125L212.594 149.352H226.188L236.656 137.125H220.523ZM241.969 173.844C241.969 167.594 239.859 162.438 235.68 158.336C231.5 154.273 226.227 152.242 219.859 152.242C213.57 152.242 208.336 154.273 204.156 158.336C199.977 162.438 197.867 167.516 197.867 173.57C197.867 179.664 199.977 184.742 204.156 188.844C208.336 192.945 213.57 194.977 219.859 194.977C224.977 194.977 229.469 193.648 233.336 190.992C237.164 188.375 239.781 184.898 241.227 180.562H227.555C226.5 182.398 223.492 183.844 220.211 183.844C216.148 183.844 212.945 181.461 211.734 177.516H241.734C241.891 176.5 241.969 175.289 241.969 173.844ZM219.859 163.297C223.727 163.297 226.891 165.641 228.102 169.508H211.812C213.062 165.719 216.109 163.297 219.859 163.297Z" fill="black"/>
</svg>
