<svg width="162" height="77" viewBox="0 0 162 77" fill="none" xmlns="http://www.w3.org/2000/svg">
<path d="M17.1641 18.1211L10.3672 1.40234H1.48047V29H8.35547V13.3555L14.7617 29H19.3906L25.7969 13.3555V29H32.6719V1.40234H23.9219L17.1641 18.1211ZM54.1758 8.60938H37.418V14.4883H47.6914V16.3242H42.9648C40.9531 16.3242 39.2734 16.9492 37.9258 18.1992C36.5781 19.4688 35.8945 21.0312 35.8945 22.8867C35.8945 24.7812 36.5586 26.3438 37.9062 27.5938C39.2539 28.8633 40.9336 29.4883 42.9648 29.4883C45.2891 29.4883 47.1445 28.7461 48.4922 27.2422V29H56.2852V23.082H54.1758V8.60938ZM44.8984 24.7227C43.5703 24.7227 42.5742 23.8242 42.5742 22.7109C42.5742 21.5977 43.5703 20.7578 44.8984 20.7578H47.6914V22.6328C47.6914 23.8047 46.4805 24.7227 44.8984 24.7227ZM71.8125 8.60938H67.2227V2.59375H60.7383V8.60938H57.3008V14.5273H60.7383V29H71.8125V23.082H67.2227V14.5273H71.8125V8.60938ZM87.4961 8.12109C85.1328 8.12109 83.1602 9 81.6172 10.7578V0.191406H75.1523V29H81.6172V18.0039C81.6172 15.8164 83.1016 14.3906 85.3477 14.3906C87.3789 14.3906 88.707 15.7969 88.707 17.9258V29H95.1914V15.7578C95.1914 13.4727 94.4883 11.6172 93.0625 10.2109C91.6367 8.82422 89.7812 8.12109 87.4961 8.12109ZM120.016 18.9219C120.016 15.7969 118.961 13.2188 116.871 11.168C114.781 9.13672 112.145 8.12109 108.961 8.12109C105.816 8.12109 103.199 9.13672 101.109 11.168C99.0195 13.2188 97.9648 15.7578 97.9648 18.7852C97.9648 21.832 99.0195 24.3711 101.109 26.4219C103.199 28.4727 105.816 29.4883 108.961 29.4883C111.52 29.4883 113.766 28.8242 115.699 27.4961C117.613 26.1875 118.922 24.4492 119.645 22.2812H112.809C112.281 23.1992 110.777 23.9219 109.137 23.9219C107.105 23.9219 105.504 22.7305 104.898 20.7578H119.898C119.977 20.25 120.016 19.6445 120.016 18.9219ZM108.961 13.6484C110.895 13.6484 112.477 14.8203 113.082 16.7539H104.938C105.562 14.8594 107.086 13.6484 108.961 13.6484ZM135.797 19.8398C135.797 21.8711 134.43 23.1992 132.398 23.1992C130.523 23.1992 129.273 21.8906 129.273 19.918V8.60938H122.789V21.8711C122.789 24.1758 123.473 26.0117 124.84 27.3984C126.188 28.7852 127.984 29.4883 130.191 29.4883C132.438 29.4883 134.293 28.668 135.797 27.0469V29H142.281V8.60938H135.797V19.8398ZM153.707 29.4883C156.031 29.4883 157.965 28.8828 159.547 27.6523C161.129 26.4414 161.91 24.7617 161.91 22.6328C161.91 20.6211 161.148 19 159.762 18.0625C158.355 17.125 157.203 16.6562 155.426 16.2461C153.238 15.7188 152.145 15.0742 152.145 14.2734C152.145 13.5898 152.789 13.1211 153.59 13.1211C154.508 13.1211 155.191 13.7461 155.191 14.6055H161.637C161.637 12.8281 160.875 11.2852 159.332 10.0156C157.789 8.74609 155.895 8.12109 153.629 8.12109C151.422 8.12109 149.547 8.70703 148.004 9.85938C146.461 11.0117 145.699 12.6328 145.699 14.6836C145.699 18.1406 147.906 20.3281 152.301 21.2461C154.41 21.6953 155.465 22.3398 155.465 23.1992C155.465 23.9609 154.762 24.4883 153.746 24.4883C152.672 24.4883 151.871 23.6875 151.871 22.6719H145.426C145.426 24.5664 146.227 26.1875 147.809 27.4961C149.391 28.8242 151.363 29.4883 153.707 29.4883ZM22.0078 46.3242V41.4023H0.445312V47.8867H12.5156L0.289062 64.0781V69H22.2812V62.5156H9.76172L22.0078 46.3242ZM43.0234 66.4219C45.1328 64.3711 46.1875 61.832 46.1875 58.7852C46.1875 55.7578 45.1328 53.2188 43.0234 51.168C40.9141 49.1367 38.2969 48.1211 35.1523 48.1211C32.0078 48.1211 29.3711 49.1367 27.2617 51.168C25.1523 53.2188 24.0977 55.7578 24.0977 58.7852C24.0977 61.832 25.1523 64.3711 27.2617 66.4219C29.3711 68.4727 32.0078 69.4883 35.1523 69.4883C38.2969 69.4883 40.9141 68.4727 43.0234 66.4219ZM32.0078 61.9297C31.168 61.0898 30.7383 60.0547 30.7383 58.8047C30.7383 57.5547 31.168 56.5 32.0078 55.6602C32.8477 54.8203 33.8828 54.3906 35.1523 54.3906C36.4023 54.3906 37.4375 54.8203 38.2773 55.6602C39.0977 56.5 39.5078 57.5547 39.5078 58.8047C39.5078 60.0547 39.0977 61.0898 38.2773 61.9297C37.4375 62.7695 36.4023 63.1992 35.1523 63.1992C33.8828 63.1992 32.8477 62.7695 32.0078 61.9297ZM61.4414 48.1211C59.1758 48.1211 57.2812 48.9023 55.7578 50.4844V48.6094H49.293V76.5977H55.7578V67.125C57.2812 68.707 59.1758 69.4883 61.4414 69.4883C64.2148 69.4883 66.5391 68.4727 68.4141 66.4219C70.2695 64.3711 71.207 61.832 71.207 58.7852C71.207 55.7578 70.2695 53.2188 68.4141 51.168C66.5391 49.1367 64.2148 48.1211 61.4414 48.1211ZM57.0273 61.9297C56.1875 61.0898 55.7578 60.0547 55.7578 58.8047C55.7578 57.5547 56.1875 56.5 57.0273 55.6602C57.8672 54.8203 58.9023 54.3906 60.1719 54.3906C61.4219 54.3906 62.457 54.8203 63.2969 55.6602C64.1172 56.5 64.5273 57.5547 64.5273 58.8047C64.5273 60.0547 64.1172 61.0898 63.2969 61.9297C62.457 62.7695 61.4219 63.1992 60.1719 63.1992C58.9023 63.1992 57.8672 62.7695 57.0273 61.9297ZM86.5977 48.1211C84.332 48.1211 82.4375 48.9023 80.9141 50.4844V48.6094H74.4492V76.5977H80.9141V67.125C82.4375 68.707 84.332 69.4883 86.5977 69.4883C89.3711 69.4883 91.6953 68.4727 93.5703 66.4219C95.4258 64.3711 96.3633 61.832 96.3633 58.7852C96.3633 55.7578 95.4258 53.2188 93.5703 51.168C91.6953 49.1367 89.3711 48.1211 86.5977 48.1211ZM82.1836 61.9297C81.3438 61.0898 80.9141 60.0547 80.9141 58.8047C80.9141 57.5547 81.3438 56.5 82.1836 55.6602C83.0234 54.8203 84.0586 54.3906 85.3281 54.3906C86.5781 54.3906 87.6133 54.8203 88.4531 55.6602C89.2734 56.5 89.6836 57.5547 89.6836 58.8047C89.6836 60.0547 89.2734 61.0898 88.4531 61.9297C87.6133 62.7695 86.5781 63.1992 85.3281 63.1992C84.0586 63.1992 83.0234 62.7695 82.1836 61.9297ZM109.762 40.5625L105.797 46.6758H112.594L117.828 40.5625H109.762ZM120.484 58.9219C120.484 55.7969 119.43 53.2188 117.34 51.168C115.25 49.1367 112.613 48.1211 109.43 48.1211C106.285 48.1211 103.668 49.1367 101.578 51.168C99.4883 53.2188 98.4336 55.7578 98.4336 58.7852C98.4336 61.832 99.4883 64.3711 101.578 66.4219C103.668 68.4727 106.285 69.4883 109.43 69.4883C111.988 69.4883 114.234 68.8242 116.168 67.4961C118.082 66.1875 119.391 64.4492 120.113 62.2812H113.277C112.75 63.1992 111.246 63.9219 109.605 63.9219C107.574 63.9219 105.973 62.7305 105.367 60.7578H120.367C120.445 60.25 120.484 59.6445 120.484 58.9219ZM109.43 53.6484C111.363 53.6484 112.945 54.8203 113.551 56.7539H105.406C106.031 54.8594 107.555 53.6484 109.43 53.6484Z" fill="black"/>
</svg>
